<svg width="1952" height="465" xmlns="http://www.w3.org/2000/svg" xml:space="preserve" enable-background="new 0 0 1648 417" version="1.1">
 <g id="Layer_1">
  <title>Layer 1</title>
  <g>
   <path d="m208.21696,334.24257c-6.89282,-11.56152 -11.79764,-29.16235 -10.51846,-38.17352c3.11246,1.32946 6.10422,2.63696 9.1185,3.89032c36.65866,15.24456 79.12539,3.77075 102.61374,-27.5614c35.94641,-47.95026 11.08197,-123.09943 -51.78595,-134.57798c-48.99567,-8.94574 -93.58469,19.1102 -103.202,66.90332c-1.11764,5.5539 -1.70929,11.14591 -1.72894,16.82993c-0.06265,18.13239 -0.57382,36.24322 3.56588,54.14264c6.29661,27.22571 21.22846,48.50909 43.46799,64.99328c4.18353,3.10096 8.31928,6.26648 12.16205,9.94922c-8.16592,-0.6195 -15.72308,-3.09649 -22.93402,-6.24951c-44.23242,-19.34082 -71.50507,-52.34631 -78.8197,-100.47882c-8.64325,-56.87509 26.10968,-114.41724 80.09726,-134.29394c14.34546,-5.28159 28.96798,-9.0329 44.19455,-9.54346c57.2687,-1.92014 111.15024,32.8804 129.31112,88.20218c23.80677,72.52047 -22.29412,147.39718 -96.0343,163.25277c-11.65741,2.50653 -23.38623,3.11359 -35.23282,2.87238c-2.29422,-0.04669 -4.16452,-0.83069 -5.99795,-2.09308c-7.06897,-4.86731 -13.18711,-10.68725 -18.27695,-18.06433z" fill="#005248"/>
   <path d="m90.22291,284.4167c10.54322,32.47828 30.49686,57.40613 57.77603,76.73865c21.52399,15.25378 45.51413,24.71942 71.30661,29.86011c5.69507,1.13507 11.38062,2.37988 16.98682,3.8858c11.06891,2.97327 17.99573,16.06995 14.15521,26.42999c-2.96222,7.99085 -10.3294,12.90552 -18.80948,11.75696c-52.48642,-7.10907 -101.04843,-23.89062 -141.47088,-59.47979c-29.40299,-25.88733 -47.23984,-58.53547 -54.02048,-97.14643c-2.0155,-11.47687 -3.69382,-23.01648 -2.13803,-34.70703c1.85501,-13.93903 11.75625,-22.85248 25.22446,-22.9162c12.35839,-0.05847 23.12847,9.7179 25.09582,22.86609c1.08572,7.25629 0.06729,14.61005 1.17059,21.91687c1.04847,6.94342 2.7446,13.68317 4.72333,20.79498z" fill="rgb(249,235,49)"/>
   <path d="m121.12324,131.65669c-5.13431,7.6102 -10.06921,14.92337 -14.98178,22.25156c-8.53885,12.73767 -19.90869,15.41333 -31.57486,12.82471c-14.80481,-3.28501 -23.02902,-18.14304 -18.78027,-33.38953c6.18161,-22.18283 19.05944,-40.17926 36.2146,-55.18136c27.5104,-24.05762 60.21054,-36.8505 95.69732,-43.35502c12.80036,-2.34625 25.74247,-3.37536 38.75263,-2.9776c8.36966,0.25589 16.40454,1.83316 21.34448,9.63791c8.26916,13.06461 0.74939,30.12006 -14.59979,32.75995c-10.80322,1.858 -21.74347,2.7626 -32.40369,5.63031c-32.0672,8.62637 -58.76239,25.40747 -79.66864,51.79907z" fill="rgb(249,235,49)"/>
   <path d="m212.26875,246.37349c-14.56824,-12.2727 -19.17856,-27.70685 -15.0256,-45.5198c4.02447,-17.26172 15.82144,-27.39869 32.6636,-31.47513c19.07513,-4.61695 37.75073,3.49487 47.64056,20.02905c9.64374,16.12256 7.78907,37.30927 -4.52905,51.73962c-14.81634,17.357 -40.689,19.69147 -60.74951,5.22626z" fill="#005248"/>
  </g>
  <g>
   <path d="m1527.44443,440.95229c-387.95319,0 -775.40637,0 -1162.92977,0c0,-138.93637 0,-277.87276 0,-416.90458c549.26308,0 1098.5964,0 1647.89999,0c0,138.97791 0,277.94126 0,416.90458c-161.50989,0 -322.99012,0 -484.97022,0m-678.40198,-175.9424c12.33588,-37.40625 1.72711,-72.55349 -29.50381,-95.32226c-21.62677,-15.76691 -46.01187,-18.05062 -70.91129,-10.35546c-34.79394,10.75309 -53.41784,34.92617 -54.76321,71.61664c-1.64697,44.91692 -0.39234,89.94025 -0.39231,134.91754c0,1.91718 -0.00003,3.83438 -0.00003,5.64148c7.03492,0 13.26416,0 20.01468,0c0,-27.90228 0,-55.40988 0,-82.91745c0.41352,-0.23303 0.82706,-0.46606 1.24057,-0.69906c0.85877,1.19656 1.60529,2.49591 2.59284,3.57452c20.6513,22.5545 46.3786,30.04877 75.68069,23.45972c27.15189,-6.10559 45.01715,-23.89508 56.04187,-49.91567m482.14966,40.24245c20.50189,-47.25188 41.00379,-94.50374 61.80396,-142.44296c-6.29975,0 -11.61994,0.16865 -16.92237,-0.06612c-2.96655,-0.13133 -4.41473,0.92009 -5.57007,3.64835c-11.0335,26.05734 -22.19574,52.06021 -33.34411,78.06881c-4.1767,9.7439 -8.41388,19.46187 -12.91162,29.8579c-0.86933,-1.77049 -1.4007,-2.75903 -1.85077,-3.78333c-15.13452,-34.44241 -30.24353,-68.89605 -45.44446,-103.30909c-0.72394,-1.63889 -2.25281,-2.92223 -3.40686,-4.37113c-1.35535,1.43529 -3.23071,2.63892 -3.98871,4.34035c-13.48126,30.25935 -26.82178,60.58137 -40.20636,90.88385c-2.2959,5.19771 -4.65484,10.36755 -7.31622,16.28776c-1.74848,-4.01413 -3.10736,-7.04583 -4.39642,-10.10693c-13.63117,-32.36818 -27.23029,-64.74991 -40.93537,-97.08675c-0.69421,-1.63793 -2.18939,-4.04547 -3.45868,-4.14103c-5.88287,-0.44303 -11.81775,-0.19587 -18.68249,-0.19587c3.55243,8.38779 6.69494,15.85685 9.87561,23.30964c17.96826,42.10161 35.92956,84.2062 53.98004,126.27253c0.70611,1.64569 2.29474,2.91278 3.47217,4.35624c1.33288,-1.46067 3.15155,-2.70173 3.92608,-4.41486c12.00122,-26.5452 23.85584,-53.15666 35.77076,-79.74098c3.70495,-8.26636 7.48846,-16.49747 11.6054,-25.55773c0.85346,1.56849 1.27643,2.23269 1.59314,2.94417c7.92011,17.79385 15.83258,35.59107 23.73871,53.39113c7.43341,16.73584 14.82288,33.49145 22.35522,50.18265c0.58515,1.29666 2.10969,2.93356 3.26246,2.98599c1.06439,0.04837 2.55828,-1.63132 3.25671,-2.88711c1.36871,-2.461 2.31555,-5.15668 3.79425,-8.42548m-363.29401,-150.36377c-47.26519,-2.48451 -77.58599,35.47847 -81.28289,72.43581c-4.07703,40.75593 22.47271,82.31953 64.82342,88.25233c40.51624,5.67584 74.56714,-12.31561 87.92096,-45.26363c-5.19214,-2.78804 -10.4162,-5.5932 -16.04846,-8.61753c-8.61212,14.56402 -18.80096,27.00051 -35.33722,32.5625c-16.20752,5.45153 -32.22522,6.4429 -48.06873,-1.08872c-20.88458,-9.92804 -34.31103,-34.16847 -32.46252,-56.14285c45.68127,0 91.41217,0 137.10791,0c2.30945,-41.56331 -30.13647,-81.70957 -76.65247,-82.13791m848.76337,130.34161c0.53601,1.37796 1.5155,2.74933 1.53613,4.13501c0.13807,9.26047 0.07166,18.52399 0.07166,28.26157c5.68469,0 10.67688,-0.30594 15.61304,0.08917c4.59851,0.36804 5.5382,-1.46737 5.50415,-5.70944c-0.1991,-24.82956 -0.03833,-49.66197 -0.21973,-74.49179c-0.04126,-5.63542 -0.60718,-11.3219 -1.52502,-16.88696c-5.10413,-30.94031 -32.3274,-61.27013 -68.11524,-65.22251c-19.26099,-2.12715 -37.84875,0.32341 -54.02624,11.54483c-28.78357,19.96573 -40.93946,47.72824 -36.1128,82.5344c4.78028,34.47192 37.18238,72.03942 85.60132,66.28723c21.20667,-2.51935 39.30872,-11.08777 51.67273,-30.54151m-403.82092,-75.38412c-3.72534,11.91061 -5.08374,24.00996 -3.44666,36.46286c7.07105,53.79098 60.56128,85.29727 111.92664,63.80017c36.82019,-15.4097 54.92822,-55.08023 45.32446,-94.71684c-8.05542,-33.24611 -38.21826,-58.37342 -70.6416,-60.5216c-43.30322,-2.86901 -72.1106,23.71297 -83.16284,54.97541m-742.87787,-49.05336c-0.75095,-0.65903 -1.48096,-1.85839 -2.25632,-1.88846c-4.65893,-0.18065 -9.3414,0.1192 -13.98968,-0.16779c-3.21533,-0.19851 -4.69306,1.09737 -5.90927,3.93128c-14.17859,33.03862 -28.46276,66.03195 -42.73986,99.02821c-2.08589,4.82077 -4.28064,9.59445 -6.88218,15.41231c-4.57453,-10.19936 -8.66172,-19.26483 -12.71025,-28.34749c-12.80817,-28.73437 -25.58631,-57.48216 -38.44874,-86.1922c-0.62257,-1.38962 -1.88313,-3.47117 -2.93859,-3.52824c-6.20435,-0.33534 -12.43604,-0.16487 -19.33176,-0.16487c0.89934,2.41418 1.38768,3.97023 2.04417,5.45178c19.62384,44.28516 39.22269,88.58154 58.99167,132.80188c1.38336,3.09436 1.22966,5.47104 -0.07774,8.39874c-6.4472,14.43744 -12.73792,28.94492 -19.05019,43.44238c-2.82408,6.48606 -5.56926,13.00647 -8.61256,20.12479c6.20087,0 11.52663,-0.20151 16.82748,0.0748c3.23819,0.16876 4.65706,-1.15418 5.84725,-3.99564c4.37207,-10.43801 9.01144,-20.76404 13.54318,-31.13528c25.1253,-57.50139 50.24854,-115.00369 75.69339,-173.2462m435.37909,153.95018c13.1076,4.00967 25.56482,1.51324 38.22998,-3.69061c-2.05115,-5.44776 -4.01422,-10.6615 -6.08191,-16.15323c-2.4165,0.9057 -4.41315,1.62271 -6.38641,2.39907c-8.22406,3.23578 -22.04773,1.44916 -28.93665,-7.60284c-6.34076,-8.33179 -9.54931,-17.49538 -9.6214,-27.75891c-0.14874,-21.16043 -0.05884,-42.32257 -0.04449,-63.48399c0.00097,-1.4379 0.19067,-2.87566 0.33331,-4.8875c12.26978,0 24.16315,0 35.99915,0c0,-5.86694 0,-11.11965 0,-16.9263c-12.26691,0 -24.18195,0 -36.65516,0c0,-25.12081 0,-49.67952 0,-74.22227c-6.83349,0 -13.08068,0 -19.74865,0c0,10.13085 -0.00708,19.93136 0.00116,29.73186c0.03778,44.98838 -0.1128,89.97814 0.20636,134.96453c0.14666,20.67761 13.88733,40.33926 32.70471,47.63019m-637.36485,-120.91529c8.76471,0 17.52943,0 26.30729,0c0,-6.01852 0,-11.27018 0,-17.07615c-12.05037,0 -23.79325,0 -36.1399,0c0,-25.10477 0,-49.65773 0,-74.34938c-6.85684,0 -13.08912,0 -19.5193,0c-0.10065,1.60833 -0.25329,2.91076 -0.25342,4.21319c-0.0052,52.8097 -0.02227,105.61942 0.06175,158.42899c0.00631,3.96281 0.27955,8.03926 1.21997,11.86856c7.77511,31.65955 35.13533,50.01947 69.4722,33.86023c-1.95188,-5.20828 -3.9124,-10.43973 -5.95826,-15.89883c-2.37931,0.90786 -4.36265,1.70452 -6.37327,2.42504c-9.21307,3.30146 -22.83832,1.38169 -29.88836,-8.7604c-5.52887,-7.95377 -8.5454,-16.49838 -8.56934,-26.1028c-0.05398,-21.65674 -0.02971,-43.31372 -0.00736,-64.97058c0.00113,-1.10118 0.28312,-2.20209 0.48034,-3.63802c2.8969,0 5.53748,0 9.16766,0.00015m1426.47251,17.6247c0,-16.25096 0,-32.50191 0,-48.77501c-6.97436,0 -13.21386,0 -19.66906,0c0,51.31856 0,102.23793 0,153.55321c6.60656,0 12.97522,0 19.66906,0c0,-34.82321 0,-69.30071 0,-104.7782m-264.02819,70.50754c-1.66114,-0.02237 -3.33643,-0.19513 -4.98096,-0.04074c-6.75159,0.63391 -11.44312,4.28958 -14.03516,10.40851c-2.67102,6.30505 -2.01525,12.39138 2.47559,17.74285c4.39746,5.24024 10.00391,7.62268 16.82715,6.06742c8.16015,-1.85999 13.45251,-7.92325 13.85266,-15.50791c0.49255,-9.33688 -3.57849,-15.0159 -14.13928,-18.67013m238.22876,-162.26362c0.35925,0.93158 0.64709,1.89872 1.08923,2.78909c3.38159,6.80744 10.52124,10.42189 17.78662,9.03933c6.70227,-1.27537 12.32056,-7.21913 12.81714,-13.55967c0.7135,-9.10797 -3.03504,-15.41118 -10.68225,-18.15478c-10.03833,-3.60147 -23.68201,4.51494 -21.01074,19.88603z" fill="none"/>
   <path d="m848.89044,265.36518c-10.87271,25.6653 -28.73797,43.45479 -55.88986,49.56038c-29.30209,6.58905 -55.02939,-0.90522 -75.68069,-23.45972c-0.98755,-1.07861 -1.73407,-2.37796 -2.59284,-3.57452c-0.41351,0.233 -0.82705,0.46603 -1.24057,0.69906c0,27.50757 0,55.01517 0,82.91745c-6.75052,0 -12.97976,0 -20.01468,0c0,-1.8071 0.00003,-3.7243 0.00003,-5.64148c-0.00003,-44.97729 -1.25466,-90.00062 0.39231,-134.91754c1.34537,-36.69047 19.96927,-60.86355 54.76321,-71.61664c24.89942,-7.69516 49.28452,-5.41145 70.91129,10.35546c31.23092,22.76877 41.83969,57.91601 29.3518,95.67755m-53.31033,29.3929c24.24747,-11.2006 37.108,-30.31623 38.07096,-56.82825c1.51437,-41.69505 -37.72898,-72.45172 -77.88648,-61.07324c-37.56155,10.64291 -53.36423,51.96126 -38.35715,87.0971c11.7923,27.60917 46.59156,42.95765 78.17267,30.80439z" fill="#F9EB34"/>
   <path d="m1331.01352,305.58748c-1.30011,2.93366 -2.24695,5.62934 -3.61566,8.09034c-0.69843,1.25579 -2.19232,2.93548 -3.25671,2.88711c-1.15277,-0.05243 -2.67731,-1.68933 -3.26246,-2.98599c-7.53234,-16.6912 -14.92181,-33.44681 -22.35522,-50.18265c-7.90613,-17.80006 -15.8186,-35.59728 -23.73871,-53.39113c-0.31671,-0.71148 -0.73968,-1.37568 -1.59314,-2.94417c-4.11694,9.06026 -7.90045,17.29137 -11.6054,25.55773c-11.91492,26.58432 -23.76954,53.19578 -35.77076,79.74098c-0.77453,1.71313 -2.5932,2.95419 -3.92608,4.41486c-1.17743,-1.44346 -2.76606,-2.71055 -3.47217,-4.35624c-18.05048,-42.06633 -36.01178,-84.17092 -53.98004,-126.27253c-3.18067,-7.45279 -6.32318,-14.92185 -9.87561,-23.30964c6.86474,0 12.79962,-0.24716 18.68249,0.19587c1.26929,0.09556 2.76447,2.5031 3.45868,4.14103c13.70508,32.33684 27.3042,64.71857 40.93537,97.08675c1.28906,3.0611 2.64794,6.0928 4.39642,10.10693c2.66138,-5.92021 5.02032,-11.09005 7.31622,-16.28776c13.38458,-30.30248 26.7251,-60.6245 40.20636,-90.88385c0.758,-1.70143 2.63336,-2.90506 3.98871,-4.34033c1.15405,1.44888 2.68292,2.73222 3.40686,4.37111c15.20093,34.41304 30.30994,68.86668 45.44446,103.30909c0.45007,1.0243 0.98144,2.01284 1.85077,3.78333c4.49774,-10.39603 8.73492,-20.114 12.91162,-29.8579c11.14837,-26.0086 22.31061,-52.01147 33.34411,-78.06881c1.15534,-2.72826 2.60352,-3.77968 5.57007,-3.64835c5.30243,0.23477 10.62262,0.06612 16.92237,0.06612c-20.80017,47.93922 -41.30207,95.19108 -61.98255,142.7781z" fill="#F9EB34"/>
   <path d="m968.38681,154.90252c46.02729,0.41439 78.47321,40.56065 76.16376,82.12396c-45.69574,0 -91.42664,0 -137.10791,0c-1.84851,21.97438 11.57794,46.21481 32.46252,56.14285c15.84351,7.53162 31.86121,6.54025 48.06873,1.08872c16.53626,-5.56199 26.7251,-17.99848 35.33722,-32.5625c5.63226,3.02433 10.85632,5.82949 16.04846,8.61753c-13.35382,32.94802 -47.40472,50.93947 -87.92096,45.26363c-42.35071,-5.9328 -68.90045,-47.4964 -64.82342,-88.25233c3.6969,-36.95734 34.0177,-74.92032 81.7716,-72.42186m-23.77746,22.50953c-19.58185,7.49637 -29.91535,22.64208 -35.46454,42.39632c38.11499,0 75.67315,0 114.94256,0c-3.44598,-7.55432 -5.78857,-14.70958 -9.69079,-20.8782c-13.54907,-21.41842 -42.95447,-30.46158 -69.78723,-21.51812z" fill="#F9EB34"/>
   <path d="m1816.40244,285.52193c-12.10498,19.16199 -30.20703,27.73041 -51.4137,30.24976c-48.41894,5.75219 -80.82104,-31.81531 -85.60132,-66.28723c-4.82666,-34.80616 7.32923,-62.56867 36.1128,-82.5344c16.17749,-11.22142 34.76525,-13.67198 54.02624,-11.54483c35.78784,3.95238 63.01111,34.2822 68.11524,65.22251c0.91784,5.56506 1.48376,11.25154 1.52502,16.88696c0.1814,24.82982 0.02063,49.66223 0.21973,74.49179c0.03405,4.24207 -0.90564,6.07748 -5.50415,5.70944c-4.93616,-0.39511 -9.92835,-0.08917 -15.61304,-0.08917c0,-9.73758 0.06641,-19.0011 -0.07166,-28.26157c-0.02063,-1.38568 -1.00012,-2.75705 -1.79516,-3.84326m-83.96716,-105.20737c-39.09766,21.87284 -45.83057,71.03476 -13.6648,101.5185c17.7655,16.83649 36.74377,19.34112 59.40527,10.00424c15.95276,-6.57278 24.84583,-20.35622 32.47766,-35.11665c8.56897,-16.57238 6.57032,-33.94461 -0.4309,-49.21241c-14.52149,-31.6677 -48.31702,-40.41056 -77.78723,-27.19368z" fill="#F9EB34"/>
   <path d="m1412.99277,209.48203c10.90002,-30.89841 39.7074,-57.48039 83.01062,-54.61138c32.42334,2.14818 62.58618,27.27549 70.6416,60.5216c9.60376,39.63661 -8.50427,79.30714 -45.32446,94.71684c-51.36536,21.4971 -104.85559,-10.00919 -111.92664,-63.80017c-1.63708,-12.4529 -0.27868,-24.55225 3.59888,-36.82689m25.95447,61.38385c19.91296,32.5681 66.50244,35.04625 91.25415,10.98759c14.56775,-14.15988 19.90454,-31.87465 18.3175,-51.83409c-2.90478,-36.52838 -40.54004,-67.48967 -81.25732,-51.60948c-35.35645,13.78943 -49.10633,58.54701 -28.31433,92.45598z" fill="#F9EB34"/>
   <path d="m669.80222,161.16295c-25.28439,57.87226 -50.40763,115.37456 -75.53293,172.87595c-4.53174,10.37124 -9.17111,20.69727 -13.54318,31.13528c-1.19019,2.84146 -2.60906,4.1644 -5.84725,3.99564c-5.30085,-0.27631 -10.62661,-0.0748 -16.82748,-0.0748c3.0433,-7.11832 5.78848,-13.63873 8.61256,-20.12479c6.31227,-14.49746 12.60299,-29.00494 19.05019,-43.44238c1.3074,-2.9277 1.4611,-5.30438 0.07774,-8.39874c-19.76898,-44.22034 -39.36783,-88.51672 -58.99167,-132.80188c-0.65649,-1.48155 -1.14483,-3.0376 -2.04417,-5.45178c6.89572,0 13.12741,-0.17047 19.33176,0.16487c1.05546,0.05707 2.31602,2.13862 2.93859,3.52824c12.86243,28.71004 25.64057,57.45783 38.44874,86.1922c4.04853,9.08266 8.13572,18.14813 12.71025,28.34749c2.60154,-5.81786 4.79629,-10.59154 6.88218,-15.41231c14.2771,-32.99626 28.56127,-65.98959 42.73986,-99.02821c1.21621,-2.83391 2.69394,-4.12979 5.90927,-3.93128c4.64828,0.28699 9.33075,-0.01286 13.98968,0.16779c0.77536,0.03007 1.50537,1.22943 2.09586,2.25871z" fill="#F9EB34"/>
   <path d="m1104.97544,314.58931c-18.45105,-7.13736 -32.19172,-26.79901 -32.33838,-47.47662c-0.31916,-44.98639 -0.16858,-89.97615 -0.20636,-134.96453c-0.00824,-9.8005 -0.00116,-19.60101 -0.00116,-29.73186c6.66797,0 12.91516,0 19.74865,0c0,24.54275 0,49.10146 0,74.22227c12.47321,0 24.38825,0 36.65516,0c0,5.80665 0,11.05936 0,16.9263c-11.836,0 -23.72937,0 -35.99915,0c-0.14264,2.01184 -0.33234,3.4496 -0.33331,4.8875c-0.01435,21.16142 -0.10425,42.32356 0.04449,63.48399c0.07209,10.26353 3.28064,19.42712 9.6214,27.75891c6.88892,9.052 20.71259,10.83862 28.93665,7.60284c1.97326,-0.77636 3.96991,-1.49337 6.38641,-2.39907c2.06769,5.49173 4.03076,10.70547 6.08191,16.15323c-12.66516,5.20385 -25.12238,7.70028 -38.59631,3.53704z" fill="#F9EB33"/>
   <path d="m467.48212,193.82752c-3.13538,-0.00008 -5.77596,-0.00008 -8.67286,-0.00008c-0.19722,1.43593 -0.47921,2.53684 -0.48034,3.63802c-0.02235,21.65686 -0.04662,43.31384 0.00736,64.97058c0.02394,9.60442 3.04047,18.14903 8.56934,26.1028c7.05004,10.14209 20.67529,12.06186 29.88836,8.7604c2.01062,-0.72052 3.99396,-1.51718 6.37327,-2.42504c2.04586,5.4591 4.00638,10.69055 5.95826,15.89883c-34.33687,16.15924 -61.69709,-2.20068 -69.4722,-33.86023c-0.94042,-3.8293 -1.21366,-7.90575 -1.21997,-11.86856c-0.08402,-52.80957 -0.06695,-105.61929 -0.06175,-158.42899c0.00013,-1.30243 0.15277,-2.60486 0.25342,-4.21319c6.43018,0 12.66246,0 19.5193,0c0,24.69165 0,49.24461 0,74.34938c12.34665,0 24.08953,0 36.1399,0c0,5.80597 0,11.05763 0,17.07615c-8.77786,0 -17.54258,0 -26.80209,-0.00007z" fill="#F9EB35"/>
   <path d="m1894.44943,211.95229c0,34.97749 0,69.45499 0,104.2782c-6.69384,0 -13.0625,0 -19.66906,0c0,-51.31528 0,-102.23465 0,-153.55321c6.4552,0 12.6947,0 19.66906,0c0,16.2731 0,32.52405 0,49.27501z" fill="#F9EB34"/>
   <path d="m1630.83945,282.01604c10.14258,3.59802 14.21362,9.27704 13.72107,18.61392c-0.40015,7.58466 -5.69251,13.64792 -13.85266,15.50791c-6.82324,1.55526 -12.42969,-0.82718 -16.82715,-6.06742c-4.49084,-5.35147 -5.14661,-11.4378 -2.47559,-17.74285c2.59204,-6.11893 7.28357,-9.7746 14.03516,-10.40851c1.64453,-0.15439 3.31982,0.01837 5.39917,0.09695z" fill="#F9EB34"/>
   <path d="m1868.57602,119.2809c-2.59729,-14.95578 11.04639,-23.07219 21.08472,-19.47072c7.64721,2.7436 11.39575,9.04681 10.68225,18.15478c-0.49658,6.34054 -6.11487,12.2843 -12.81714,13.55967c-7.26538,1.38256 -14.40503,-2.23189 -17.78662,-9.03933c-0.44214,-0.89037 -0.72998,-1.85751 -1.16321,-3.2044z" fill="#F9EB35"/>
  </g>
 </g>

</svg>