<svg xmlns="http://www.w3.org/2000/svg" width="48" height="48" viewBox="275 275 450 450" preserveAspectRatio="xMidYMid meet">
<path fill="#005248" opacity="1.000000" stroke="none" d=" M481.703461,632.191650   C474.810638,620.630127 469.905823,603.029297 471.184998,594.018127   C474.297455,595.347595 477.289215,596.655090 480.303497,597.908447   C516.962158,613.153015 559.428894,601.679199 582.917236,570.347046   C618.863647,522.396790 593.999207,447.247620 531.131287,435.769073   C482.135620,426.823334 437.546600,454.879272 427.929291,502.672394   C426.811646,508.226288 426.220001,513.818298 426.200348,519.502319   C426.137695,537.634705 425.626526,555.745544 429.766235,573.644958   C436.062836,600.870667 450.994690,622.154053 473.234222,638.638245   C477.417755,641.739197 481.553497,644.904724 485.396271,648.587463   C477.230347,647.967957 469.673187,645.490967 462.462250,642.337952   C418.229828,622.997131 390.957184,589.991638 383.642548,541.859131   C374.999298,484.984039 409.752228,427.441895 463.739807,407.565186   C478.085266,402.283600 492.707794,398.532288 507.934357,398.021729   C565.203064,396.101593 619.084595,430.902130 637.245483,486.223907   C661.052246,558.744385 614.951355,633.621094 541.211182,649.476685   C529.553772,651.983215 517.824951,652.590271 505.978363,652.349060   C503.684143,652.302368 501.813843,651.518372 499.980408,650.255981   C492.911438,645.388672 486.793304,639.568726 481.703461,632.191650  z" />
<path fill="rgb(249,235,49)" opacity="1.000000" stroke="none" d=" M363.709412,582.365784   C374.252625,614.844055 394.206268,639.771912 421.485443,659.104431   C443.009430,674.358215 466.999573,683.823853 492.792053,688.964539   C498.487122,690.099609 504.172668,691.344421 509.778870,692.850342   C520.847778,695.823608 527.774597,708.920288 523.934082,719.280334   C520.971863,727.271179 513.604675,732.185852 505.124603,731.037292   C452.638184,723.928223 404.076172,707.146667 363.653717,671.557495   C334.250732,645.670166 316.413879,613.022034 309.633240,574.411072   C307.617737,562.934204 305.939423,551.394592 307.495209,539.704041   C309.350220,525.765015 319.251465,516.851562 332.719666,516.787842   C345.078064,516.729370 355.848145,526.505737 357.815491,539.653931   C358.901215,546.910217 357.882782,554.263977 358.986084,561.570801   C360.034546,568.514221 361.730682,575.253967 363.709412,582.365784  z" />
<path fill="rgb(249,235,49)" opacity="1.000000" stroke="none" d=" M394.609741,429.605774   C389.475433,437.215973 384.540527,444.529144 379.627960,451.857330   C371.089111,464.595001 359.719269,467.270660 348.053101,464.682037   C333.248291,461.397034 325.024078,446.539001 329.272827,431.292511   C335.454437,409.109680 348.332275,391.113251 365.487427,376.111145   C392.997833,352.053528 425.697968,339.260651 461.184753,332.756134   C473.985107,330.409882 486.927216,329.380768 499.937378,329.778534   C508.307037,330.034424 516.341919,331.611694 521.281860,339.416443   C529.551025,352.481049 522.031250,369.536499 506.682068,372.176392   C495.878845,374.034393 484.938599,374.938995 474.278381,377.806702   C442.211182,386.433075 415.515991,403.214172 394.609741,429.605774  z" />
<path fill="#005248" opacity="1.000000" stroke="none" d=" M485.755249,544.322571   C471.187012,532.049866 466.576691,516.615723 470.729645,498.802765   C474.754120,481.541046 486.551086,471.404083 503.393250,467.327637   C522.468384,462.710693 541.143982,470.822510 551.033813,487.356689   C560.677551,503.479248 558.822876,524.665955 546.504761,539.096313   C531.688416,556.453308 505.815765,558.787781 485.755249,544.322571  z" />
</svg>